:FULLY-SPECIFIED
:FORCE-ALL-JOINTS-BE-3DOF
:DEGREES
1427
root -2.08637 13.7129 12.6858 6.52782 27.3466 6.3677
lfemur 25.7705 -0.324671 -10.2055
ltibia 16.7066 -0 0
lfoot -15.812 34.6243 0.000159127
ltoes -23.6752 0 0
rfemur -65.4042 -21.3038 12.1971
rtibia 74.2017 -0 0
rfoot -9.43717 10.0978 -0.00131124
rtoes 4.64513 -0 0
lowerback 10.1572 2.03163 -10.162
upperback -3.33953 1.23762 -0.922797
thorax -9.57914 1.17393 4.49288
lowerneck 0.00869107 -11.6909 -10.5288
upperneck 6.19429 -16.0866 9.6238
head 3.47456 -7.9978 3.86532
lclavicle 1.01303e-14 -2.50966e-14 0
lhumerus -73.6958 -17.9586 104.322
lradius 100.899 -0 0
lwrist 58.2224 0 0
lhand -9.5208 41.7326 -0.001372
lfingers 7.12502 -0 0
lthumb 16.445 71.0554 -0.00131596
rclavicle 1.01303e-14 -2.50966e-14 0
rhumerus 63.2356 -13.9763 -27.8664
rradius 81.8722 -0 0
rwrist 26.9734 0 0
rhand -43.9728 -31.3302 -0.000971305
rfingers 7.12502 -0 0
rthumb -16.7951 -60.6244 -0.000797114
1428
root -2.09011 13.7113 12.6866 6.58777 27.3205 6.41708
lfemur 25.6184 -0.285187 -10.2216
ltibia 16.8892 -0 0
lfoot -15.8136 34.6536 8.27366e-05
ltoes -23.5819 0 0
rfemur -65.5283 -21.3928 12.2595
rtibia 74.2166 -0 0
rfoot -9.364 10.2028 -0.0006956
rtoes 4.72947 -0 0
lowerback 10.1757 2.02121 -10.1747
upperback -3.35111 1.21882 -0.923371
thorax -9.60043 1.16699 4.50254
lowerneck -0.0144281 -11.673 -10.512
upperneck 6.17626 -16.0574 9.59719
head 3.46641 -7.98317 3.8566
lclavicle 1.01303e-14 -2.50966e-14 0
lhumerus -73.6939 -18.0106 104.378
lradius 100.847 -0 0
lwrist 58.2302 0 0
lhand -9.52203 41.5647 -0.000767389
lfingers 7.12502 -0 0
lthumb 16.4438 70.8877 -0.000736423
rclavicle 1.01303e-14 -2.50966e-14 0
rhumerus 63.1796 -13.981 -27.8266
rradius 81.9569 -0 0
rwrist 26.8732 0 0
rhand -43.8999 -31.2943 -0.000509193
rfingers 7.12502 -0 0
rthumb -16.7249 -60.5941 -0.000418098
1429
root -2.09385 13.7096 12.6875 366.657 27.29 366.479
lfemur 25.4395 -0.23724 -10.24
ltibia 17.1148 0 0
lfoot -15.8202 34.6887 0
ltoes -23.52 0 0
rfemur -65.6805 -21.5026 12.3332
rtibia 74.2489 0 0
rfoot -9.28252 10.3274 0
rtoes 4.81966 0 0
lowerback 10.1998 2.00932 -10.193
upperback -3.36437 1.19648 -0.923438
thorax -9.62655 1.15899 4.51646
lowerneck -0.0430407 -11.652 -10.4902
upperneck 6.15585 -16.0225 9.56096
head 3.45668 -7.96576 3.84452
lclavicle 1.01303e-14 -2.50966e-14 0
lhumerus -73.6921 -18.0711 104.445
lradius 100.788 0 0
lwrist 58.2415 0 0
lhand -9.52497 41.3658 0
lfingers 7.12502 0 0
lthumb 16.441 -289.311 0
rclavicle 1.01303e-14 -2.50966e-14 0
rhumerus 63.1163 -13.9861 -27.7839
rradius 82.059 0 0
rwrist 26.7522 0 0
rhand -43.8098 -31.2493 0
rfingers 7.12502 0 0
rthumb -16.6381 -60.5561 0
1430
root -2.09708 13.709 12.6845 6.72055 27.2432 6.54214
lfemur 25.2867 -0.18598 -10.2721
ltibia 17.326 -0 0
lfoot -15.8291 34.7336 -0.000113837
ltoes -23.4701 0 0
rfemur -65.8354 -21.6207 12.4062
rtibia 74.2906 -0 0
rfoot -9.21086 10.502 0.00238834
rtoes 4.89935 -0 0
lowerback 10.2089 1.99795 -10.2252
upperback -3.38222 1.17441 -0.925017
thorax -9.64952 1.1519 4.53655
lowerneck -0.0575362 -11.6436 -10.4742
upperneck 6.13607 -16.0068 9.53541
head 3.44653 -7.95782 3.83479
lclavicle -2.05509e-14 3.18055e-15 0
lhumerus -73.7391 -18.1271 104.526
lradius 100.737 -0 0
lwrist 58.2642 0 0
lhand -9.51005 41.1656 0.000660719
lfingers 7.12502 -0 0
lthumb 16.4554 70.488 0.000708567
rclavicle -2.05509e-14 3.18055e-15 0
rhumerus 63.0853 -14.025 -27.7504
rradius 82.1712 -0 0
rwrist 26.6718 0 0
rhand -43.7483 -31.2063 -0.00015645
rfingers 7.12502 -0 0
rthumb -16.5789 -60.5188 -3.71827e-05
1431
root -2.10032 13.7083 12.6816 6.76476 27.1714 6.59533
lfemur 25.2072 -0.137078 -10.3269
ltibia 17.4692 -0 0
lfoot -15.8373 34.7904 -0.000278659
ltoes -23.414 0 0
rfemur -65.967 -21.7332 12.4662
rtibia 74.3318 -0 0
rfoot -9.16461 10.747 0.00775811
rtoes 4.9531 -0 0
lowerback 10.1858 1.98901 -10.2768
upperback -3.40659 1.1563 -0.929836
thorax -9.6621 1.1475 4.56355
lowerneck -0.0411549 -11.6609 -10.4739
upperneck 6.1196 -16.031 9.53871
head 3.43716 -7.96964 3.8327
lclavicle -2.05509e-14 3.18055e-15 0
lhumerus -73.8737 -18.1664 104.62
lradius 100.707 -0 0
lwrist 58.3041 0 0
lhand -9.46172 40.9946 0.00107758
lfingers 7.12502 -0 0
lthumb 16.502 70.3141 0.00131847
rclavicle -2.05509e-14 3.18055e-15 0
rhumerus 63.1193 -14.1242 -27.7364
rradius 82.2848 -0 0
rwrist 26.6849 0 0
rhand -43.7551 -31.1757 -0.00148261
rfingers 7.12502 -0 0
rthumb -16.5857 -60.4903 -0.000871101
